<svg width="73" height="73" viewBox="0 0 73 73" fill="none" xmlns="http://www.w3.org/2000/svg">
<g clip-path="url(#clip0_3_2)">
<mask id="mask0_3_2" style="mask-type:alpha" maskUnits="userSpaceOnUse" x="0" y="0" width="74" height="74">
<path fill-rule="evenodd" clip-rule="evenodd" d="M36.9008 73.154C57.08 73.154 73.439 56.795 73.439 36.6156C73.439 16.436 57.08 0.0770874 36.9008 0.0770874C16.7211 0.0770874 0.362305 16.436 0.362305 36.6156C0.362305 56.795 16.7211 73.154 36.9008 73.154ZM63.791 32.824C60.384 36.8081 55.585 39.2893 50.268 39.2893C39.9318 39.2893 31.5529 29.9129 31.5529 18.3465C31.5529 15.4366 32.0832 12.6652 33.0417 10.147C20.0899 12.1141 10.165 23.2971 10.165 36.7982C10.165 40.7375 11.0099 44.4794 12.5284 47.8526C14.0688 46.4195 16.2336 45.5278 18.6313 45.5278C23.307 45.5278 27.0975 48.9192 27.0975 53.103C27.0975 55.912 25.3884 58.364 22.8498 59.672C26.9891 62.26 31.8815 63.757 37.1233 63.757C52.012 63.757 64.082 51.687 64.082 36.7982C64.082 35.448 63.982 34.121 63.791 32.824Z" fill="white"/>
</mask>
<g mask="url(#mask0_3_2)">
<path fill-rule="evenodd" clip-rule="evenodd" d="M36.9008 73.154C57.08 73.154 73.439 56.795 73.439 36.6156C73.439 16.436 57.08 0.0770874 36.9008 0.0770874C16.7211 0.0770874 0.362305 16.436 0.362305 36.6156C0.362305 56.795 16.7211 73.154 36.9008 73.154ZM63.791 32.824C60.384 36.8081 55.585 39.2893 50.268 39.2893C39.9318 39.2893 31.5529 29.9129 31.5529 18.3465C31.5529 15.4366 32.0832 12.6652 33.0417 10.147C20.0899 12.1141 10.165 23.2971 10.165 36.7982C10.165 40.7375 11.0099 44.4794 12.5284 47.8526C14.0688 46.4195 16.2336 45.5278 18.6313 45.5278C23.307 45.5278 27.0975 48.9192 27.0975 53.103C27.0975 55.912 25.3884 58.364 22.8498 59.672C26.9891 62.26 31.8815 63.757 37.1233 63.757C52.012 63.757 64.082 51.687 64.082 36.7982C64.082 35.448 63.982 34.121 63.791 32.824Z" fill="black"/>
<path d="M63.791 32.824L66.435 32.4332L65.577 26.6217L61.759 31.0864L63.791 32.824ZM33.0417 10.147L35.5404 11.098L37.1701 6.8157L32.6402 7.5037L33.0417 10.147ZM12.5284 47.8526L10.0905 48.95L11.6205 52.349L14.3495 49.81L12.5284 47.8526ZM22.8498 59.672L21.6253 57.295L17.4481 59.447L21.4323 61.939L22.8498 59.672ZM70.766 36.6156C70.766 55.319 55.604 70.481 36.9008 70.481V75.828C58.557 75.828 76.113 58.272 76.113 36.6156H70.766ZM36.9008 2.7507C55.604 2.7507 70.766 17.9125 70.766 36.6156H76.113C76.113 14.9594 58.557 -2.59641 36.9008 -2.59641V2.7507ZM3.03591 36.6156C3.03591 17.9125 18.1977 2.7507 36.9008 2.7507V-2.59641C15.2446 -2.59641 -2.31119 14.9594 -2.31119 36.6156H3.03591ZM36.9008 70.481C18.1977 70.481 3.03591 55.319 3.03591 36.6156H-2.31119C-2.31119 58.272 15.2446 75.828 36.9008 75.828V70.481ZM50.268 41.9628C56.453 41.9628 61.967 39.0707 65.823 34.5616L61.759 31.0864C58.801 34.5455 54.717 36.6157 50.268 36.6157V41.9628ZM28.8793 18.3465C28.8793 31.0987 38.1804 41.9628 50.268 41.9628V36.6157C41.6832 36.6157 34.2264 28.727 34.2264 18.3465H28.8793ZM30.543 9.196C29.4692 12.0174 28.8793 15.1109 28.8793 18.3465H34.2264C34.2264 15.7622 34.6973 13.3131 35.5404 11.098L30.543 9.196ZM12.8386 36.7982C12.8386 24.6385 21.7781 14.5619 33.4431 12.7902L32.6402 7.5037C18.4016 9.6663 7.49151 21.9557 7.49151 36.7982H12.8386ZM14.9663 46.7551C13.6001 43.7202 12.8386 40.3517 12.8386 36.7982H7.49151C7.49151 41.1232 8.41981 45.2386 10.0905 48.95L14.9663 46.7551ZM18.6313 42.8542C15.5719 42.8542 12.7526 43.9924 10.7073 45.8952L14.3495 49.81C15.385 48.8467 16.8954 48.2013 18.6313 48.2013V42.8542ZM29.771 53.103C29.771 47.1708 24.4962 42.8542 18.6313 42.8542V48.2013C22.1179 48.2013 24.424 50.668 24.424 53.103H29.771ZM24.0742 62.049C27.365 60.353 29.771 57.059 29.771 53.103H24.424C24.424 54.765 23.4118 56.375 21.6253 57.295L24.0742 62.049ZM37.1233 61.083C32.3972 61.083 27.994 59.736 24.2673 57.405L21.4323 61.939C25.9842 64.785 31.3657 66.43 37.1233 66.43V61.083ZM61.408 36.7982C61.408 50.21 50.535 61.083 37.1233 61.083V66.43C53.488 66.43 66.755 53.163 66.755 36.7982H61.408ZM61.146 33.2148C61.318 34.3828 61.408 35.5792 61.408 36.7982H66.755C66.755 35.3168 66.646 33.8591 66.435 32.4332L61.146 33.2148Z" fill="black"/>
</g>
</g>
<defs>
<clipPath id="clip0_3_2">
<rect width="73" height="73" fill="white"/>
</clipPath>
</defs>
</svg>
